<?xml version="1.0" encoding="UTF-8" standalone="no"?><!-- Created with Inkscape (http://www.inkscape.org/) --><svg xmlns:dc="http://purl.org/dc/elements/1.1/" xmlns:cc="http://creativecommons.org/ns#" xmlns:rdf="http://www.w3.org/1999/02/22-rdf-syntax-ns#" xmlns:svg="http://www.w3.org/2000/svg" xmlns="http://www.w3.org/2000/svg" xmlns:xlink="http://www.w3.org/1999/xlink" xmlns:sodipodi="http://sodipodi.sourceforge.net/DTD/sodipodi-0.dtd" xmlns:inkscape="http://www.inkscape.org/namespaces/inkscape" width="15" height="15" id="svg3241" version="1.1" inkscape:version="0.48.3.1 r9886" sodipodi:docname="Nuevo documento 5"><defs id="defs3243"><radialGradient inkscape:collect="always" xlink:href="#linearGradient3569" id="radialGradient4307" gradientUnits="userSpaceOnUse" gradientTransform="matrix(-7.9382631e-8,0.6037857,-1,-3.6299384e-7,16.289984,5.8618312)" cx="9.714344" cy="8.7899828" fx="9.714344" fy="8.7899828" r="7.5"></radialGradient><linearGradient id="linearGradient3569"><stop style="stop-color:#fffffa;stop-opacity:1;" offset="0" id="stop3571"></stop><stop id="stop3577" offset="0.5101186" style="stop-color:#ffd963;stop-opacity:1;"></stop><stop style="stop-color:#ff9900;stop-opacity:1;" offset="1" id="stop3573"></stop></linearGradient><linearGradient inkscape:collect="always" xlink:href="#linearGradient3385" id="linearGradient3405" gradientUnits="userSpaceOnUse" x1="0.98294997" y1="5.3600893" x2="14.243655" y2="5.9792886"></linearGradient><linearGradient inkscape:collect="always" id="linearGradient3385"><stop style="stop-color:#ffffff;stop-opacity:1;" offset="0" id="stop3387"></stop><stop style="stop-color:#ffffff;stop-opacity:0;" offset="1" id="stop3389"></stop></linearGradient></defs><sodipodi:namedview id="base" pagecolor="#ffffff" bordercolor="#666666" borderopacity="1.0" inkscape:pageopacity="0.0" inkscape:pageshadow="2" inkscape:zoom="0.35" inkscape:cx="-185.35714" inkscape:cy="-18.214279" inkscape:document-units="px" inkscape:current-layer="layer1" showgrid="false" fit-margin-top="0" fit-margin-left="0" fit-margin-right="0" fit-margin-bottom="0" inkscape:window-width="521" inkscape:window-height="383" inkscape:window-x="0" inkscape:window-y="24" inkscape:window-maximized="0"></sodipodi:namedview><metadata id="metadata3246"><rdf:RDF><cc:Work rdf:about=""><dc:format>image/svg+xml</dc:format><dc:type rdf:resource="http://purl.org/dc/dcmitype/StillImage"></dc:type><dc:title></dc:title></cc:Work></rdf:RDF></metadata><g inkscape:label="Capa 1" inkscape:groupmode="layer" id="layer1" transform="translate(-535.35714,-499.1479)"><g id="g4336" transform="translate(517.25868,498.09956)"><path transform="translate(18.098462,0.04834405)" d="m 14.5,8.5 c 0,3.865993 -3.134007,7 -7,7 -3.8659932,0 -7,-3.134007 -7,-7 0,-3.8659932 3.1340068,-7 7,-7 3.865993,0 7,3.1340068 7,7 z" sodipodi:ry="7" sodipodi:rx="7" sodipodi:cy="8.5" sodipodi:cx="7.5" id="path3184" style="fill:url(#radialGradient4307);fill-opacity:1;fill-rule:nonzero;stroke:#000000;stroke-width:1;stroke-linecap:round;stroke-linejoin:round;stroke-miterlimit:4;stroke-opacity:1;stroke-dasharray:none;stroke-dashoffset:0;marker:none;visibility:visible;display:inline;overflow:visible;enable-background:accumulate" sodipodi:type="arc"></path><path transform="matrix(0.05987609,0.8217059,-1.2823004,0.03836896,32.473204,-0.798686)" d="m 13.42249,5.7142859 c 0,2.2091389 -2.173255,4 -4.854102,4 -2.6808466,0 -4.8541021,-1.7908611 -4.8541021,-4 0,-2.209139 2.1732555,-4 4.8541021,-4 2.680847,0 4.854102,1.790861 4.854102,4 z" sodipodi:ry="4" sodipodi:rx="4.8541021" sodipodi:cy="5.7142859" sodipodi:cx="8.568388" id="path3403" style="fill:url(#linearGradient3405);fill-opacity:1;fill-rule:nonzero;stroke:none;stroke-width:1.09488189;marker:none;visibility:visible;display:inline;overflow:visible;enable-background:accumulate" sodipodi:type="arc"></path><path inkscape:connector-curvature="0" sodipodi:nodetypes="czsz" id="path3186" d="m 29.598462,8.548344 -8,0 c 0,3 2,4 4,4 2,0 4,-1 4,-4 z" style="fill:#ffffff;fill-opacity:1;stroke:#000000;stroke-width:1;stroke-linecap:round;stroke-linejoin:round;stroke-miterlimit:4;stroke-opacity:1;stroke-dasharray:none;stroke-dashoffset:0"></path><path sodipodi:type="arc" style="fill:#000000;fill-opacity:1;stroke:#000000;stroke-width:1;stroke-linecap:round;stroke-linejoin:round;stroke-miterlimit:4;stroke-opacity:1;stroke-dasharray:none;stroke-dashoffset:0" id="path3188" sodipodi:cx="20.5" sodipodi:cy="4.5" sodipodi:rx="1" sodipodi:ry="1" d="m 21.5,4.5 c 0,0.5522847 -0.447715,1 -1,1 -0.552285,0 -1,-0.4477153 -1,-1 0,-0.5522847 0.447715,-1 1,-1 0.552285,0 1,0.4477153 1,1 z" transform="translate(3.0984621,1.048344)"></path><path d="m 21.5,4.5 c 0,0.5522847 -0.447715,1 -1,1 -0.552285,0 -1,-0.4477153 -1,-1 0,-0.5522847 0.447715,-1 1,-1 0.552285,0 1,0.4477153 1,1 z" sodipodi:ry="1" sodipodi:rx="1" sodipodi:cy="4.5" sodipodi:cx="20.5" id="path3190" style="fill:#000000;fill-opacity:1;stroke:#000000;stroke-width:1;stroke-linecap:round;stroke-linejoin:round;stroke-miterlimit:4;stroke-opacity:1;stroke-dasharray:none;stroke-dashoffset:0" sodipodi:type="arc" transform="translate(7.0984621,1.048344)"></path></g></g></svg>